<?xml version="1.0" encoding="UTF-8"?>
<svg id="Capa_2" data-name="Capa 2" xmlns="http://www.w3.org/2000/svg" viewBox="0 0 208.57 980.92">
  <defs>
    <style>
      .cls-1 {
        fill: #f4cbc7;
      }

      .cls-1, .cls-2, .cls-3 {
        stroke-width: 0px;
      }

      .cls-2 {
        fill: #ff1695;
      }

      .cls-3 {
        fill: #ffd6cf;
      }
    </style>
  </defs>
  <g id="Capa_1-2" data-name="Capa 1">
    <g>
      <path class="cls-3" d="M31.05,391.01c2.76-13.38,8.3-25.49,14.87-37.37,6.36-11.5,11.31-23.71,12.02-37.2.22-4.15,1.1-8.25,1.5-12.39.83-8.49-.15-16.76-2.86-24.88-3.41-10.22-6.56-20.52-9.81-30.79-.11-.34-.21-.81-.06-1.1,3.37-6.6,3.54-14.76,9.88-19.93,6.74-5.5,14.56-8.65,22.88-10.51,5.13-1.15,10.41-1.69,15.74-1.63,7.75.09,14.8,2.17,21.62,5.87,3.76,2.04,7.64,5.35,12.54,2.9,5.65-2.82,11.19-5.82,17.1-8.13,6.78-2.64,13.51-2.94,20.45-.72,1.73.55,2.6,1.32,3.18,3.07,3.23,9.78,3.56,19.6,1.24,29.63-2.05,8.89-6.89,16.54-10.59,24.68-3.54,7.8-6.23,15.68-5.69,24.37.21,3.47-.59,6.89-.67,10.32-.23,9.84,3.01,18.96,6.74,27.88,5.88,14.06,13.65,27.18,20.59,40.71,3.73,7.28,2.97,13.52-.45,20.32-4.25,8.45-9.91,15.96-15.24,23.67-8.64,12.52-19.63,23.05-29.62,34.44-6.93,7.9-14.56,14.53-23.92,19.21-.87.43-1.79.76-2.69,1.15-2.9,1.25-4.41,1.07-5.9-2.57-5.69-13.87-13.46-26.63-22.52-38.58-4.62-6.09-9.38-12.07-15.03-17.26-9.49-8.72-19.55-16.68-30.82-23.04-1.46-.82-3.36-.72-4.49-2.12Z"/>
      <path class="cls-1" d="M25.85,156.06c-12.27-11.71-10.41-26.11,2.01-36.34,9.38-7.72,20.07-9.11,31.44-8.12,5.7.5,10.21,3.76,13.74,8.06,2.78,3.39,5.61,5.85,10.35,5.04,1.87-.32,4.04.35,3.44,2.64-.93,3.55-.04,6.91.18,10.33.23,3.8-1.22,6.76-3.54,9.48-4.99,5.83-10.92,10.11-18.15,13.1-7.16,2.96-14.64,3.91-22.01,5.68-7.14,1.71-14.53,3.41-19.47,9.75-1.38,1.77-3.1,3.21-5.42,2.07-2.41-1.18-2.38-3.51-2.02-5.85.99-6.43,4.53-11.36,9.46-15.83Z"/>
      <path class="cls-1" d="M187.71,127.87c.36,2.85-.5,5.43-1.47,8.02-1.4,3.76-.51,6.68,2.34,9.75,6.33,6.83,6.57,14.97,1.45,22.14-2.2,3.07-6.41,4.81-9.92,6.79-1.28.72-3.08-.2-3.86-1.53-1.17-2.01-2.92-2.4-4.96-2.68-2.69-.37-5.44-.75-7.65-2.59-.81-.68-1.79-.85-2.8-.86-9.83-.11-18.53-3.67-25.69-10.05-7.05-6.29-10.93-14.59-9.71-24.28,1.37-10.88,10.11-13.14,18.88-9.71,6.22,2.43,13.3.14,16.44-4.93,6.16-9.96,14.59-10.47,22.64-3.14,3.79,3.45,3.9,8.38,4.31,13.07Z"/>
      <path class="cls-3" d="M98.86,671.98c-4.79,0-7.97-2.43-9.26-7.06-2.57-9.24-1.04-17.97,3.54-26.19,3.56-6.39,14.47-7.65,20.41-3.56,8.83,6.08,7.67,13.82,5.12,22.17-2.82,9.23-10.14,14.63-19.82,14.64Z"/>
      <path class="cls-3" d="M148.09,653.52c.45,4.55-.24,8.49-.19,12.45.07,5.51-4.87,7.91-9.3,9.48-12.56,4.44-17.09-5.2-17.24-14.51-.07-4.29.89-8.62,1.34-12.94.51-4.94,3.89-8.36,8.22-10.32,4.36-1.97,8.21-.06,11.59,2.9,4.11,3.6,6.27,7.98,5.57,12.93Z"/>
      <path class="cls-2" d="M88.16,35.47c-2.44-3.69-1.89-6.97,1.88-11.18,6.61-7.4,18.55-7.59,26.41-.15,7.78,7.36,11.19,16.8,11.69,27.29.31,6.43-.76,12.94.74,19.31,2.63,11.12,8.59,19.64,19.62,23.82,2.9,1.1,5.88.43,8.55-1.21,1.09-.67,2.18-1.34,3.62-2.23-1.42,3.71-3.46,4.78-10.02,5.56,2.67,2.91,6.11,4.38,9.14,6.4,2.41,1.61,4.59,3.37,5.68,6.19,1.71,4.44-.63,11.76-6.84,14.77-2.89,1.4-5.81,2.9-8.33,4.85-4.41,3.42-7.1,9.15-.59,14.22.49.38.91.84,1.4,1.23,4.65,3.72,4.58,7.7-.22,11.33-.6-.74.21-1.13.47-1.57,3.19-5.56,3.47-6.12-2.07-9.86-7.37-4.98-5.46-13.85,1.4-18.27,2.18-1.41,4.34-2.91,6.69-3.98,4.25-1.94,6.17-5.54,6.31-9.72.12-3.58-2.71-5.91-5.69-7.72-3.39-2.05-6.48-4.34-9.07-7.51-1.49-1.83-4.38-2.52-6.94-3.89-2.41,10.79-7.59,19.89-14.48,28.09-.24.29-.68.56-.69.86-.41,8.95-2.69,18.02,1.7,26.69,3.79,7.48,10.83,10.77,18.09,13.26,6.85,2.35,14.06,3.64,21.09,5.47,11.51,2.99,21.57,15.41,22.65,27.76,2.06,23.7,5.59,47.13,11.17,70.32,3.55,14.74,5.63,29.84,6.92,45.06,1.17,13.86-4.88,24.52-12.85,34.46-5.33,6.64-10.8,13.26-17.21,19.3,3.97,7.45,7.38,15.25,10.33,23.24,3.52,9.56,4.86,19.7,7.57,29.49,3.78,13.65,4.73,27.75,5.18,41.87.43,13.67.02,27.33-.99,40.93-.76,10.22-2.72,20.37-4.64,30.46-4.1,21.54-10.74,42.41-17.2,63.33-6.02,19.5-12.69,38.8-17.8,58.57-.09.36-.37.7-.37,1.05.15,11.27-1.53,22.57.32,33.82,3.41,20.73,2.77,40.98-4.64,61.03-6.52,17.65-13.61,35.06-20.28,52.65-4.81,12.69-9.79,25.31-14.76,37.94-3.55,9.02-5.42,18.71-7.83,28.16-1.55,6.1-2.77,12.29-4.05,18.45-.76,3.62-.05,6.95.47,10.3,2.6,16.55,8.09,32.29,13.41,48.12,2.82,8.39,4.56,17.21,4.59,26.21.01,5.84-3.25,8.4-11.79,10.43-6.29,1.49-12.19-1.1-17.94-3.36-6.03-2.37-11.61-5.43-16.1-10.35-2.85-3.12-4.75-6.41-4.4-10.64.69-8.38,1.35-16.76,3.03-25.04,2.02-9.98,2.38-20.04.85-30.21-.96-6.38-.07-12.93-.94-19.38-1.84-13.63-3.24-27.31-4.61-41-.78-7.85-2.47-15.61-3.69-23.43-2.34-15.03-4.91-30.02-6.63-45.15-1.98-17.37-3.81-34.76-5.11-52.19-1.08-14.48-1.84-28.98-.34-43.48.85-8.19,3.25-15.99,5.93-23.74,1.65-4.79,3.42-9.49,5.57-14.07,2.11-4.49,1.9-9.12-.9-13.13-14.62-21.01-24.74-44.21-33.66-68.04-7.19-19.22-12.39-38.95-15.59-59.22-2.33-14.75-3.06-29.49-2.65-44.5.32-11.76,1.5-23.36,2.64-34.99.9-9.14,3.5-18.02,6.26-26.74,1.37-4.32,2.54-8.83,4.54-12.9,1.97-4.01-.66-5.66-2.99-7.45-13.36-10.26-21.33-23.22-22.15-40.49-.6-12.64-.64-25.26-.24-37.88.87-27.22,1.21-54.44,1.16-81.67-.02-10.65,1.9-20.89,7.98-30.01,1.61-2.42.22-4.94-1.73-6.28-6.43-4.43-7.25-8.75-2.38-14.93,4.71-5.98,4.7-6.23-1.83-10.21-4.72-2.88-8.52-6.46-9.63-12.13-1.49-7.6,2.49-13.19,7.45-18.02,4.84-4.72,10.86-7.92,17.28-9.94,11.81-3.71,15.2-13.36,16.23-23.83,1.01-10.35-.63-20.99,1.78-31.23,3.13-13.29,8.71-25.31,21.22-32.64,2.91-1.7,5.6-2.13,9.16-1.49-1.8-3.36-3.28-6.59-1.38-10.33,2.28-4.46,6.34-6.46,10.66-8.05,7.91-2.9,16.09-2.68,24.25-1.48,7.55,1.11,15.11,2.05,22.5,4.32,18.06,5.54,28.84,17.86,34.6,35.33,2.44,7.43,3.14,15.16,4.32,22.8,2.07,13.37,10.32,21.64,22.48,25.52,7.73,2.47,11.24,7.57,13.35,14.37,3.31,10.63.48,22.23-10.24,29.14-7.92,5.1-8.44,11.82-2.04,18.58,4.65,4.91,4.64,10.85-.37,15.32-2.85,2.54-6.43,3.83-10.78,4.55,1.09-2.17,2.8-2.1,4.18-2.58,2.92-1,5.81-1.95,7.5-4.92,2.53-4.45,2-7.78-2.11-10.89-6.75-5.11-9.4-15.05-.03-21.47,6.13-4.2,11.67-8.72,12.83-16.83,1.1-7.65-1.13-14.21-5.98-19.91-2.2-2.59-5.96-2.15-8.9-3.42-10.77-4.65-18.74-11.37-21.5-23.64-1.8-7.97-1.85-16.13-4.06-24.04-5.69-20.37-18.53-33.17-39.16-37.78-10.16-2.27-20.49-3.68-30.97-3.12-5.67.3-10.99,1.8-15.54,5.29-4.69,3.6-5.68,8.12-1.4,12.68.52.56,1.07,1.06.94,2-.53.99-1.49.99-2.53.85-7.63-1.02-12.6,3.15-16.98,8.61-8.49,10.57-12.18,22.78-12.7,36.16-.26,6.68.74,13.45-.74,20.04-2.4,10.67-6.24,20.28-17.75,24.66-5.88,2.24-11.73,5.06-16.05,9.84-4.2,4.64-8.1,9.82-5.68,16.67,1.52,4.31,4.99,7.29,8.72,9.86,4.9,3.39,5.32,6.63,1.28,11-1.73,1.87-2.91,3.85-3.55,6.37-.86,3.39.26,5.81,3.25,6.94,2.34.89,4.07,1.92,4.63,5.16,6.39-8.45,15.06-11.76,24.45-13.72,12.27-2.56,24.13-6.11,35.03-12.6,4.18-2.49,6.53-5.75,6.67-10.36.16-5.29,1.19-10.53.37-15.91-.39-2.59-.96-4.5-2.88-6.42-3.95-3.94-7.63-8.31-9.67-13.52-1.52-3.88-4.77-3.53-7.79-4.7-.29,13.51-8.06,21.15-19.6,26.01-3.76,1.58-7.43,3.39-9.86,7.01-3.58,5.35-2.51,11.3,2.88,14.73.93.59,1.92,1.1,2.92,1.55,2.97,1.32,4.09,3.77,3.24,6.66-.87,2.96-3.09,4.8-6.53,5.08.36-1.82,1.86-1.79,2.82-2.45,3.72-2.55,3.44-6.34-.66-8.25-2.96-1.38-5.57-2.99-7.03-6.19-2.19-4.76-1.51-9.18,1.88-13.28,3.96-4.79,9.64-6.98,14.76-9.85,8.41-4.72,11.25-12.38,12.96-21,.31-1.53-.47-2.23-1.43-3.09-5.27-4.7-7.34-10.98-7.31-17.67.03-6.43,4.5-11.75,12.9-7.95.42-7.8,3.39-14.56,7.99-20.68-3.86,7.74-6.17,15.89-6.99,24.82,1.29-.89.05-2.76,2.14-3,.29,2.59-.71,4.84-2.23,7.04-1.16-.58-1.43-1.65-1.36-2.76.21-3.02-1.36-4.42-4.15-4.54-3.05-.12-4.98,1.68-5.57,4.45-1.46,6.82,3.13,17.48,8.98,21.29.72.47,1.65,1.18,2.33,1.04,4.89-1,6.11,2.81,7.75,5.86,5.33,9.94,12.58,17.72,23.48,21.6,5.34,1.9,10.49,1.77,15.9-.17,11.05-3.96,16.3-12.9,20.9-22.73,1.86-3.97,2.58-8.21,4.11-12.63-3.6-2.58-6.52-6.07-8.81-10.03-5.9.89-8.88-.3-9.42-3.82,2.75-.21,4.66,4.43,7.99,1.28-2.54-5.08-3.9-10.54-3.84-16.14-2.12-1.1-3.8.53-5.8.32-.43-2.7,1.58-3.5,3.27-4.22,2-.84,2.54-2.15,2.74-4.23.62-6.49-1.11-12.5-3.09-18.53-1.76-5.33-15.67-10.46-21.65-4.48-.4.4-.56,1.13-1.34,1.09.21-5.94,6.76-7.18,18.15-3.45-3.05-8.07-16.57-6.94-24.01,1.99-.16-5.18,4.03-7.93,14.61-9.62-7.3-4.62-19.69,1.3-20.61,9.62-.14,1.31,2.9,2.51.07,3.67l.02.03ZM31.05,392.2c-1.64,10.27-5.47,19.52-5.79,29.91-.28,9.12-1.87,18.39-3.1,27.57-2.09,15.63.08,31.1,2.72,46.54,2.55,14.92,6.22,29.55,10.62,44.01,2.01,6.62,4.67,13.01,7.08,19.5,7.64,20.6,15.83,40.92,27.98,59.35,4.74,7.19,6.45,14.47,3,22.53-1.85,4.33-3.06,8.88-4.73,13.26-6.22,16.22-7.38,33.09-6.1,50.15,1.27,16.94,2.09,33.93,4.09,50.82,1.46,12.3,2.39,24.66,4.33,36.91,2.28,14.4,5.37,28.72,6.67,43.2,1.65,18.37,5.53,36.53,5.28,55.09-.03,2.52.04,5.15.72,7.75,2.21,8.52,1.92,17.14.29,25.75-1.99,10.48-2.78,21.12-2.87,31.73-.04,4.39-.63,10,5.18,12.27,5.99,2.33,11.93,4.99,18.12,6.58,4.88,1.25,10.01,2.4,15.23.05,4.45-2.01,6.05-3.53,5.33-8.29-1.23-8.07-3.04-16.03-5.69-23.77-3.56-10.42-7.59-20.72-9.8-31.52-2.74-13.41-4.43-26.96-5.6-40.64-1.66-19.49-1.24-38.97-1.28-58.45-.04-16.23,1.62-32.4,3.55-48.55,2.12-17.73,3.81-35.52,6.25-53.21,2-14.51,4.86-28.86,8.11-43.13,2.38-10.46,3.32-20.96,3.42-31.66.06-6.26-1.4-12.27-1.96-18.42-1.09-11.95-2.19-23.91-3.83-35.8-2.2-15.97-3.44-32.03-4.17-48.09-.92-20.17-3.61-39.83-10.99-58.8-5.82-14.94-14.17-28.35-23.21-41.4-7.12-10.26-15.95-19.01-25.87-26.56-7.07-5.38-14.28-10.64-22.96-14.67ZM106.4,475.18c7.97-3.36,15.47-7.05,21.24-13.14,13.05-13.76,26.67-27.07,37.5-42.75,6.45-9.34,13.88-18.15,17.63-29.13.76-2.23,2.17-4.38.99-7.01-4.96-11.09-10.43-21.91-16.25-32.58-5.02-9.21-9.13-18.88-12.01-29.05-2.18-7.68-1.13-15.43-1.32-23.2-.33-13.08,4.35-24.42,10.31-35.47,6.83-12.68,9.64-25.9,6.22-40.11-1.41-5.86-4.27-8.35-10.26-8.62-2.57-.11-5.2.24-7.73.75-7.87,1.56-14.7,5.7-21.73,9.27-2.82,1.43-5.46,2.15-8.41.67-2.32-1.16-4.77-2.1-6.97-3.45-5.06-3.11-10.71-4.79-16.42-5.24-12.32-.97-23.99,1.75-35.17,7.21-10.06,4.92-19.69,20.47-13.58,34.7,3.1,7.23,5.22,14.9,7.48,22.46,3.06,10.22,2.52,20.56,1.56,31.13-1.43,15.76-6,30.31-13.67,43.99-6.18,11.03-11.44,22.4-13.72,34.88,35.82,18.43,58.67,48.34,74.33,84.68ZM186.29,389.32c-1.11.57-1.4,1.43-1.69,2.23-3.48,9.59-10.08,17.27-15.71,25.53-8.05,11.8-17.75,22.26-27.04,33.05-5.91,6.87-11.55,13.98-19.2,19.13-4.84,3.25-10.13,5.57-15.63,7.89,5.79,13.04,8.06,26.64,9.3,40.45.69,7.67.97,15.37,1.61,23.04,1.08,13.08,2.6,26.13,3.36,39.23.55,9.47,1.8,18.85,2.69,28.27,1.35,14.35,4.25,28.48,2.11,43.12-1.93,13.24-4.36,26.36-6.62,39.53-1.67,9.77-3.43,19.53-4.72,29.35-1.78,13.63-2.73,27.39-4.81,40.97-2.14,14-3.61,28.07-4.06,42.16-.64,20.27-.28,40.58-.1,60.87.05,5.53.18,11.14,1.67,16.79,1.55-2.29.95-4.78,1.55-7.01,4.31-15.95,7.37-32.21,13.91-47.57,6.44-15.12,11.99-30.64,17.73-46.05,5.69-15.27,12.44-30.18,16.27-46.11,1.91-7.95,3-15.98,2.86-24.21-.23-14.15-3.76-28.03-3.22-42.26.32-8.29-.05-16.52,2.6-24.63,5.71-17.42,11.03-34.97,16.5-52.47,6.69-21.37,12.89-42.84,17.05-64.89,3.78-20.04,5.69-40.21,5.69-60.56,0-17.46-.81-34.88-5.25-51.89-2.08-7.97-3.54-16.13-6.87-23.96ZM86.85,123.45c2.35,5.31,1.18,9.74,1.04,14.17-.24,7.52-3.04,13.04-10.25,16.55-5.42,2.63-11.1,4.69-16.01,7.22,3.52,11.56.85,22.66-.79,33.7-1.63,10.99-4.69,21.71-7.15,32.66,8.74-8.19,19.04-12.38,30.68-13.75,11.39-1.34,22.31.01,32.11,6.11,5.93,3.69,10.77,4.16,16.84-.06,9.28-6.44,19.55-10.67,31.37-7.8.52-1.78-.33-3.12-1.01-4.31-6.21-10.86-10.3-22.68-15.47-34-2.26-4.95-4.04-10.52-9.99-12.76-12.18-4.58-16.36-17.24-14.72-29.78.28-2.17,1.65-4.35.51-6.79-1.83.91-2.88,2.2-3.92,3.63-5.45,7.49-13.67,11.26-22.06,2.64-2.92-3-6.63-4.59-11.18-7.42ZM34.15,372.49c3.22-6.74,6.26-13.38,9.54-19.89,2.18-4.34,3.91-8.4-.86-12.26-1.21-.98-1.91-2.57-2.9-3.85-3.49-4.54-5.8-9.31-5.15-15.39.82-7.71,1.02-15.48,1.49-23.23.5-8.29.68-16.62,1.55-24.87,1.52-14.4,3.32-28.77,5.31-43.1.58-4.16,1.31-8.47,3.95-12.55.73,3.25-.41,5.86-.5,8.55-.1,2.7-.57,5.4-1.06,8.07-.7,3.8-.68,4.46,1.15,7.6.53-1.56,1.12-2.92,1.46-4.34,3.86-15.82,7.83-31.62,10.36-47.72,1.23-7.82,2.52-15.65,1.73-23.64-.28-2.88-1.27-3.92-4.22-3.01-3.76,1.16-7.56,2.3-11.43,3.01-15.93,2.92-26.6,11.8-31.3,27.4-2.78,9.24-2.46,18.88-3.04,28.37-.91,14.98.79,29.97.17,44.96-.82,20-1.5,40.01-1.08,60.03.16,7.52.2,15.11,3.78,22.08,4.96,9.66,12.77,16.8,21.03,23.79ZM177.39,362.01c1.18-1.1,2.16-1.85,2.95-2.76,5.66-6.57,11.7-12.87,16.8-19.86,5.76-7.89,9.74-16.61,8.86-26.95-.96-11.37-2.37-22.67-4.63-33.85-3.84-18.96-5.98-38.27-11.91-56.81-2.73-8.54-1.76-17.65-2.75-26.48-1.21-10.77-5.19-19.71-15.87-24.43-2.77-1.23-5.68-1.71-8.52-2.5-5.47-1.5-11.04-2.63-17.03-4.02,8.23,12.35,11.61,26.36,18.42,39.87.66-4.4-.19-7.98,3.28-11.43-.19,7.22-.39,13.36,2.3,19.19,6.9,14.97,6.84,30.11.76,45.35-1.31,3.29-3.01,6.55-2.1,10.36,1.42,5.98,3.06,11.9,4.03,18,1.35,8.54,3.24,17,3.35,25.7.02,1.88.04,3.78-1.07,5.37-3.33,4.77-5.51,10.27-9.37,14.71-1.2,1.39-1.61,2.8-.65,4.69,1.79,3.51,3.11,7.26,4.91,10.76,2.57,5.01,5.4,9.89,8.27,15.08ZM43.75,244.83c-1.01,8.09-2.29,16.15-2.99,24.27-1.42,16.51-2.61,33.04-3.7,49.57-.2,3.03-1.13,6.43.56,9.17,3.14,5.08,6.76,9.86,10.22,14.83,1.39-3.96,2.39-7.84,3.8-11.49,4.14-10.7,5.12-21.86,5.37-33.08.16-7.2-2.08-14.15-4.25-21.05-3.33-10.59-6.39-21.28-9.02-32.22ZM162.11,329.23c3.31-4.84,6.32-9.77,10.29-13.99,1.05-1.11.79-2.62.62-3.93-.52-4.03-1.1-8.06-1.86-12.06-1.9-10.02-3.37-20.13-5.99-29.93-9.76,10.24-11.5,47.66-3.07,59.91Z"/>
      <path class="cls-2" d="M82.26,23.63c-1.14-7.79,4.79-14.62,14.14-16.05,14.64-2.24,27.91,1.71,40.09,9.58,5.27,3.4,7.9,9.04,10.29,14.68,4.04,9.57,4.56,19.62,4.44,29.81-.1,8.06,4.33,13.69,10.37,18.33.58.44,1.35.66,1.37,1.58-4.63-.75-11.3-7.77-13.16-13.18-2.18-6.34-.6-12.73-.84-19.09-.48-12.64-3.28-24.65-14.49-32.01-12.43-8.15-26.32-10.88-41.02-6.81-3.18.88-5.68,2.94-7.82,5.44-1.36,1.58-2.17,3.26-1.81,5.41.2,1.2.63,2.69-1.58,2.26l.05.04Z"/>
      <path class="cls-2" d="M95.87,103.85c7.15-1.33,13.63-8.97,20.14.86-.93,3.28-3.09,6.5-7.61,7.38-6.55,1.28-8.85-4.06-12.53-8.24Z"/>
      <path class="cls-2" d="M102.26,65.01c-9.08-.27-17.54-1.61-26.73-1.43,8.49-6.34,23.58-5.74,26.73,1.43Z"/>
      <path class="cls-2" d="M88.14,35.43c-15.35,4.43-18.95,17.61-22.8,30.61-.21.7-.29,1.43-.49,2.13-.16.55-.42,1.07-.75,1.89-1.83-2.13-.52-4.06-.17-5.81,1.91-9.61,5.19-18.64,13.07-25.05,3.09-2.51,6.34-5.84,11.17-3.73,0,0-.02-.03-.02-.03Z"/>
      <path class="cls-2" d="M63.68,94.15c2.32-4.02.95-10.79-2.97-15.47-1.5,1.2.16,2.71-.38,4.17-2.29-.69-1.65-2.5-1.57-3.9.05-1.05.79-1.78,1.95-1.91,1.79-.21,2.29,1.18,2.92,2.37,1.62,3.08,2.38,6.47,3.52,9.72,1.21,3.43-.08,4.69-3.47,5.03Z"/>
      <path class="cls-2" d="M82.56,77.2c2.84-2.11,4.43,1.63,6.97,1.45,2.82-.2,4.62-2.14,7.1-2.93,1.75,2.51-.11,3.52-1.64,4.39-3.53,2-9.99.51-12.43-2.91Z"/>
      <path class="cls-2" d="M82.2,23.59c.65.5,1.31,1.01,2.88,2.22-8.41.52-13.75,4.97-19.31,9.06,4.32-5.51,9.62-9.52,16.49-11.23,0,0-.06-.05-.06-.05Z"/>
      <path class="cls-2" d="M118.27,66.02c-1.24,6.36-3.36,12.47-3.96,18.93-1.07-6.84,1.56-12.89,3.96-18.93Z"/>
      <path class="cls-2" d="M114.35,88.33c1.74,1.71,1.72,3.45.51,5.2-1.29,1.87-2.99,2.62-6.19,1.54,4.29-.89,6.09-2.94,5.67-6.74Z"/>
      <path class="cls-2" d="M100.37,667.09c-6.96-3.82-7.9-7.37-3.91-13.18.89-1.29,1.01-2.35-.04-3.61-.67-.8-1.79-1.37-1.86-2.85,2.28-1.2,3.25.71,4.51,1.78,1.22,1.04,1.9,2.29,1.25,3.93-.09.23-.23.46-.4.62-4.88,4.5-4.16,8.89.46,13.31Z"/>
      <path class="cls-2" d="M106.36,270.29c10.03-2.48,19.65-10.19,31.39-2.4-5.99,1.22-10.85-2.25-16.15-1.15-5.13,1.06-9.83,3.77-15.23,3.55Z"/>
      <path class="cls-2" d="M142.66,665.24c-2.74-2.07-2.28-4.81-1.58-7.06,1.05-3.36,4.18-6.02,2.8-10.31,2.18,1.93,3.49,3.9,2.4,6.25-1.65,3.54-3.43,6.98-3.62,11.12Z"/>
    </g>
  </g>
</svg>