<?xml version="1.0" encoding="UTF-8"?>
<svg id="Capa_2" data-name="Capa 2" xmlns="http://www.w3.org/2000/svg" viewBox="0 0 688.52 868.64">
  <defs>
    <style>
      .cls-1 {
        fill: #ff1695;
        stroke-width: 0px;
      }
    </style>
  </defs>
  <g id="Capa_1-2" data-name="Capa 1">
    <g>
      <path class="cls-1" d="M309.84.55c-1.54,1.46-3.03,3-4.64,4.38-11.49,9.87-22.04,20.6-29.78,33.74-9.33,15.84-14.07,32.85-12.07,51.36,1.57,14.54,6.82,27.72,15.27,39.64,12.18,17.18,28.38,29.61,46.89,39.16,22.38,11.54,45.92,20.42,69.35,29.52,27.54,10.7,55.25,20.98,82.61,32.12,27.02,11,53.24,23.74,77.34,40.37,15.55,10.73,29.98,22.75,41.74,37.7,12.51,15.89,21.6,33.52,27.44,52.88,8.88,29.48,10.07,59.25,3.73,89.35-.14.65-.25,1.31-.36,1.96-.01.07.04.15.22.79.55-1.29.99-2.16,1.31-3.08,16.48-46.68,12.99-92.19-8.38-136.5-14.55-30.17-35.76-54.97-62.01-75.63-22.2-17.47-46.31-31.91-71-45.48-24-13.19-48.07-26.26-71.82-39.89-14.9-8.55-28.76-18.69-40.71-31.2-9.4-9.85-17.03-20.74-19.64-34.42-.66-3.49-.66-7.11-.83-10.67-.05-1.01.34-2.05.53-3.07.26-.05.52-.1.78-.15.7,1.86,1.46,3.71,2.08,5.59,4.77,14.38,13.34,26.17,24.67,36.03,10.8,9.4,22.73,17.22,35.42,23.7,23.65,12.08,47.49,23.76,71.34,35.44,22.52,11.03,44.8,22.47,65.83,36.19,24.22,15.8,46.24,34.09,63.78,57.32,27.79,36.81,42.91,77.89,41.67,124.44-.02.7.07,1.41.7,2.18.77-4.55,1.66-9.09,2.29-13.66,4.52-32.73,2.57-65-7.45-96.57-13.63-42.95-39.27-76.92-77-101.61-8.49-5.56-17.4-10.47-26.09-15.72-1.52-.92-2.91-2.05-4.36-3.08l.28-.91c1.74.13,3.5.1,5.2.42,12.25,2.3,23.46,7.38,34.34,13.24,18.2,9.82,34.22,22.47,47.98,37.9,21.56,24.17,36.27,52.02,44.59,83.32,6,22.57,8.48,45.45,7.04,68.76-1.63,26.28-7.69,51.43-18.93,75.34-10.3,21.91-23.9,41.36-42,57.47-5.58,4.96-11.84,9.15-17.86,13.6-1.27.94-2.05,1.83-2.34,3.51-4.57,26.58-8.8,53.22-14.02,79.67-4.41,22.32-11.09,44.09-20.22,64.98-11.99,27.42-28.31,51.98-49.33,73.37-14.04,14.28-29.51,26.9-44.9,39.66-17.61,14.62-34.68,29.89-52.1,44.75-12.55,10.71-25.5,20.9-40.14,28.72-24.01,12.83-49.41,20.46-76.79,21.09-33.09.76-63.51-8.21-91.7-25.11-15.05-9.02-28.51-20.23-41.5-31.96-17.86-16.14-36.29-31.58-55-46.73-23.04-18.65-44.4-39-61.05-63.84-15.48-23.1-26.62-48.14-34.49-74.75-7.77-26.25-12.75-53.08-17.08-80.05-2.52-15.7-4.93-31.41-7.26-47.14-.7-4.77-.97-9.6-1.39-14.41-.08-.88.09-1.77.15-2.66l.67-.3c.76,1.25,1.79,2.41,2.25,3.76,2.88,8.59,6.15,17.09,8.34,25.87,6.45,25.92,12.2,52.02,18.71,77.93,6.18,24.59,14.32,48.56,25.84,71.23,15.3,30.09,36.65,55.28,63.01,76.23,14.27,11.34,28.99,22.12,43.24,33.49,10.53,8.41,20.62,17.39,30.92,26.09,13.75,11.61,27.62,23.11,43.65,31.52,45.25,23.76,90.7,24.06,136.18.68,16.49-8.47,30.75-20.13,44.75-32.1,16.26-13.91,32.57-27.73,49.7-40.59,13.49-10.13,26.66-20.79,39.26-32.01,27.34-24.34,46.41-54.41,59.51-88.45,10.02-26.03,16.9-52.94,23.05-80.08,2.43-10.71,4.93-21.41,7.4-32.12.2-.88.34-1.77.61-3.15-1.35.45-2.37.82-3.41,1.13-2.63.78-5.23,1.71-7.9,2.24-1.96.39-2.65-.67-1.86-2.49.43-.98.99-1.94,1.63-2.8,12.51-16.69,19.26-35.8,23.5-55.96,4.02-19.12,5.19-38.43,3.01-57.87-4.71-41.95-22.31-77.02-55.71-103.54-18.68-14.83-39.31-26.5-60.63-37.02-32.88-16.23-67.07-29.41-100.89-43.45-23.69-9.83-47.22-19.99-70.02-31.78-21.26-10.99-40.19-24.85-54.55-44.35-12.88-17.49-20.18-36.91-19.81-58.79.45-26.47,11.16-48.48,29.95-66.76,7.39-7.19,15.72-13.1,25.13-17.42.9-.41,1.86-.72,2.81-1.03.29-.1.63-.04.95-.05.13.18.25.36.38.54Z"/>
      <path class="cls-1" d="M536.87,413.41c-1.27-1.37-2.6-2.69-3.78-4.12-3.58-4.33-7.51-8.22-12.54-10.91-1.88-1-3.05-1.23-4.04,1.08-.64,1.5-1.69,2.9-2.81,4.09-1.19,1.26-.87,2.09-.08,3.42,2.22,3.79,4.28,7.68,6.22,11.62.54,1.1.46,2.51.67,3.78-.22.18-.45.35-.67.53-1.02-.67-2.16-1.21-3.05-2.02-3.25-2.98-6.43-6.04-9.59-9.1-1.18-1.14-2.27-1.28-3.78-.5-2.34,1.21-4.84,2.13-7.39,3.23,2.02,4.05,5,7.71,4.66,13.4-1.51-1.07-2.54-1.65-3.39-2.43-2.57-2.37-5.11-4.78-7.59-7.24-1.5-1.49-3.12-1.72-5.2-1.44-22.04,2.94-43.5.84-64.12-7.86-3.33-1.4-6.63-3.01-9.51-6.54,5.39-.55,9.83,1.37,15.16,1.94-5.62-6.82-8.71-14.1-9.21-22.76-.97.59-1.61.91-2.16,1.34-1.18.92-2.37,1.84-3.46,2.87-6.7,6.34-14.45,10.25-23.6,12.13-7.36,1.52-14.42,4.51-21.62,6.83-1.28.41-2.58.73-4.31,1.22.41-3.36,2.02-5.51,4-7,4.09-3.09,8.18-6.52,12.83-8.45,9.18-3.81,16.74-9.25,23.54-16.56,5.95-6.4,13.38-11.42,20.17-17.04.69-.57,1.47-1.04,2.05-2.02-.7.22-1.45.35-2.1.67-7.01,3.44-14.01,6.9-21,10.37-2.08,1.04-4.13,2.15-6.19,3.22-.28-.3-.56-.59-.84-.89.84-1.52,1.5-3.18,2.54-4.55,4.82-6.34,11.05-11.08,17.94-14.89,19.49-10.76,40.34-15.79,62.64-14.4.58.04,1.19.02,1.73.19,4.11,1.3,7.03-.4,9.41-3.6,1.19-1.6,2.4-3.2,3.71-4.7.49-.56,1.3-.83,1.97-1.23.32.73.99,1.52.89,2.19-.34,2.28-.9,4.54-1.48,6.77-.22.86-.72,1.64-1.16,2.63,3.62,1.25,7.36,1.91,10.41,3.74,4.26,2.55,7.7,1.36,11.29-.9,2.46-1.55,4.88-3.19,7.33-4.75.81-.51,1.68-.92,2.8-1.11-.75,6.21-5.39,9.62-9.65,13.31.28.47.53.81.68,1.18.43,1.03.81,2.07,1.21,3.11-1.22.33-2.43.9-3.65.94-1.47.06-2.96-.4-4.45-.5-.97-.06-1.95.13-3.43.25,4.43,3.88,8.51,6.4,14.16,5.09,6.22-1.45,12.66-2.06,18.78-3.82,3.9-1.12,7.39-3.63,11.06-5.54.7-.36,1.33-.85,1.99-1.29.26.15.53.29.79.44-.46,1.38-.71,2.89-1.43,4.11-2.48,4.19-6.49,6.7-10.76,8.59-4.32,1.91-8.88,3.28-13.35,4.87-.75.27-1.52.47-2.79.87,4.75,3.74,9.42,6.5,14.54,8.51,6.08,2.39,12.43,2.9,18.89,2.76,1.91-.04,3.83-.03,5.73.19,2.8.32,3.3,1.62,1.43,3.78-1.13,1.3-2.47,2.51-3.92,3.44-10.86,6.93-22.39,7.82-34.44,3.61-1.85-.65-3.67-1.35-5.54-2.04-1,2.29.61,2.91,1.8,3.69,7.13,4.67,12.28,10.92,15.1,19,.52,1.5.65,3.13.96,4.7l-1.02.47ZM432.97,371.42c-1.26.59-2.3,1.04-3.29,1.56-4.91,2.6-5.05,2.64-3.81,8.04,2.42,10.52,8.62,17.74,19.23,20.5,10.21,2.66,18.78-.63,25.54-8.42,7.19-8.28,8.1-17.74,4.27-27.8-.22-.56-.74-1.38-1.19-1.42-2.42-.27-4.85-.33-7.41-.46q2.65,9.7,1.58,12.25c-5.2-3.77-10.17-3.7-13.63.2-3.45,3.89-2.95,8.76,1.41,13.76-10.17,4.35-20.55-3.77-22.7-18.2ZM489.03,368.26c3.67,13.35,1.37,25-6.64,35.77,4.84-1.26,9.42-2.67,13.79-4.59,2.45-1.08,4.83-2.7,6.74-4.58,5.11-5.06,4.72-15.68-.7-19.22-3.95-2.58-8.23-4.63-13.18-7.37ZM447.02,364.94c-.64-.43-1.59-1.54-2.7-1.72-1.75-.28-2.79,1.03-2.77,2.74.02,1.6,1.04,2.68,2.7,2.65,1.73-.02,2.74-.99,2.77-3.68Z"/>
      <path class="cls-1" d="M60.17,346.58c.36.16.79.25,1.09.49,8.34,6.82,18.48,8.35,28.66,9.76.49.07,1,.08,1.49.12q7.9.76,14.81-4.93c-1.47-.14-2.41-.36-3.34-.3-1.82.11-3.63.5-5.45.51-.9,0-2.25-.33-2.57-.94-.32-.6.36-1.77.71-2.65.21-.52.62-.95.65-.99-3.13-3.84-6.11-7.46-9.03-11.12-.34-.42-.42-1.08-.52-1.65-.06-.37.07-.78.18-1.79,1.83,1.11,3.31,2.06,4.83,2.93,3.38,1.95,6.76,3.9,10.18,5.77.61.33,1.53.61,2.12.39,4.81-1.78,9.58-3.69,14.49-5.61-.69-2.05-1.7-4.18-2.07-6.42-.26-1.57.32-3.29.53-4.94,1.12.97,2.28,1.89,3.34,2.93.65.63,1.15,1.42,1.7,2.16,2.66,3.55,5.68,5.02,10.58,4.46,16.42-1.88,32.35,1,47.78,6.67,11.75,4.32,22.68,10.05,31.46,19.25,1.37,1.44,2.59,3.05,3.71,4.69.6.88.84,2.01,1.24,3.03-.21.23-.43.46-.64.68-1.51-.71-3.12-1.26-4.52-2.14-7.42-4.67-15.12-8.75-23.43-11.63-.46-.16-.92-.3-1.6-.15.44.37.85.8,1.33,1.12,10.94,7.31,20.33,16.31,29.34,25.86,2.75,2.91,7.24,4.18,10.91,6.23,5,2.79,10.12,5.39,14.89,8.53,2.2,1.45,3.74,3.95,5.47,6.06.52.63.66,1.58,1.25,3.05-1.74-.4-2.89-.49-3.88-.93-8.87-3.95-18.16-6.56-27.63-8.51-5.68-1.16-10.3-4.06-14.62-7.69-2.89-2.43-5.85-4.77-9.35-7.61-.42,9.03-3.52,16.31-9.23,23.12,5.22-.89,9.68-1.65,14.14-2.41.19.33.38.65.56.98-1.05.97-1.94,2.28-3.18,2.85-5.66,2.57-11.25,5.51-17.17,7.27-17.54,5.21-35.47,6.37-53.62,3.76-1.21-.17-2.85.3-3.79,1.07-2.69,2.22-5.1,4.77-7.67,7.14-.99.91-2.11,1.69-3.57,2.28-.56-4.92,2.16-8.63,4.38-12.73-3-1.32-5.9-2.68-8.88-3.81-.53-.2-1.58.41-2.14.92-3.13,2.86-6.16,5.84-9.27,8.72-1.04.96-2.25,1.74-3.38,2.6-.29-.16-.58-.32-.88-.47.26-1.47.19-3.09.82-4.37,1.87-3.79,3.9-7.52,6.09-11.14.8-1.33,1.06-2.12-.02-3.43-1.56-1.92-2.81-4.09-4.3-6.32-5.05,1.78-9.02,5.11-12.6,8.96-1.47,1.58-2.73,3.36-4.17,4.97-.68.76-1.57,1.32-2.36,1.97-.22-.11-.45-.23-.67-.34.23-1.41.29-2.87.72-4.21,2.75-8.42,8.14-14.78,15.48-19.59,1.17-.76,2.57-1.43,1.46-3.46-2.11.77-4.18,1.58-6.29,2.28-11.94,3.96-23.3,2.91-33.92-4.06-1.31-.86-2.51-1.95-3.54-3.12-.6-.68-1.22-1.89-.99-2.59.21-.65,1.51-1.27,2.37-1.32,3.81-.22,7.64-.24,11.46-.31,10.1-.2,18.63-4.49,26.58-10.25.24-.17.38-.48.78-1.02-1.4-.4-2.61-.63-3.73-1.09-5.45-2.23-11-4.27-16.25-6.91-2.42-1.22-4.42-3.5-6.24-5.61-1.02-1.19-1.29-3.02-1.89-4.57l.83-.43ZM144.83,363.37c-1.57.07-2.79.13-4.01.19-4.35.22-4.43.2-5.6,4.32-3,10.55-.72,19.88,7.29,27.38,7.73,7.24,16.93,9.2,26.81,5.17,10.09-4.12,15.26-12.15,16.3-22.9.07-.77.05-1.99-.39-2.28-2.2-1.41-4.55-2.58-7.07-3.95-.36,2.48-.65,4.46-.98,6.73-5.14-4.86-9.91-5.68-13.83-2.26-1.47,1.28-2.67,3.26-3.2,5.15-.99,3.49.38,6.6,3.18,9.14-10.89,2.87-26.61-9.13-18.48-26.69ZM128.7,403.75c-3.8-5.15-6.48-10.6-7.73-16.76-1.23-6.09-.6-12.11.94-18.67-4.38,2.42-8.15,4.49-11.91,6.58-.65.36-1.37.69-1.87,1.22-4.92,5.16-5.04,13.83.07,18.83,5.62,5.51,13.02,7.27,20.5,8.79ZM155.44,367.3c0-.4,0-.81,0-1.21-1.1-.72-2.25-2.05-3.29-1.97-.95.08-2.34,1.57-2.54,2.64-.33,1.72,1.09,2.89,2.78,2.58,1.11-.21,2.05-1.32,3.06-2.03Z"/>
      <path class="cls-1" d="M191.26,300.81c-.79-1.86-1.41-3.32-2.03-4.77.23-.25.47-.5.7-.75,8.6,3.12,16.01,8.33,23.42,13.83-.49-1.19-1.16-2.34-1.43-3.58-.21-.94.08-1.99.14-2.99.92.2,2,.16,2.74.64,4.61,3,8.29,6.92,11.11,11.65.37.62.81,1.21,1.56,2.34.25-1.91.3-3.3.66-4.6.22-.8.81-1.87,1.46-2.06.55-.16,1.71.58,2.1,1.23,4.5,7.47,6.78,15.39,4.17,24.07-.49,1.63-1.4,3.23-2.46,4.56-.64.79-2,1.5-2.97,1.43-3.96-.31-8.03-.47-11.82-1.52-12.26-3.4-24.49-6.92-36.59-10.86-21.77-7.08-43.43-14.5-66.07-18.4-10.25-1.77-20.56-3.58-31.02-2.41-12.21,1.36-22.62,7.02-32.17,14.41-2.49,1.93-4.71,4.21-7.08,6.29-.46.41-1.07.65-2.17,1.29.3-1.44.28-2.38.68-3.1,9.13-16.63,21.04-30.41,39.36-37.25,9.03-3.37,18.57-4.61,28.14-5.29,24.6-1.73,48.28,2.27,70.99,11.91,2.79,1.18,5.51,2.53,8.58,3.94Z"/>
      <path class="cls-1" d="M383.45,316.64c3.37-5.02,6.98-9.55,11.93-12.81,1.06-.7,2.5-.82,3.76-1.21-.12,1.34-.15,2.7-.41,4.01-.17.86-.69,1.64-1.31,3.04,1-.67,1.49-1.01,1.99-1.34,6.07-3.92,12.11-7.89,18.23-11.72,1.07-.67,2.48-.8,3.73-1.19.18.23.36.46.53.69-.61,1.37-1.22,2.74-2.04,4.6,2.38-1.08,4.38-2.01,6.39-2.89,29.46-12.88,59.94-16.46,91.55-10.29,18.07,3.52,31.3,14.06,41.91,28.46,2.31,3.14,4.3,6.53,6.31,9.89.72,1.21,1.06,2.66,1.57,3.99-.25.18-.49.37-.74.55-1.15-.96-2.36-1.87-3.45-2.9-9.79-9.18-20.97-15.81-34.25-18.5-7.97-1.61-15.94-.5-23.86.47-21.93,2.66-42.93,9.13-63.86,15.87-14.73,4.74-29.48,9.43-44.3,13.86-3.94,1.18-8.18,1.35-12.29,1.96-.74.11-1.51.01-2.24.15-3.69.71-4.97.13-6.59-3.34-2.43-5.22-2.54-10.7-1.01-16.11.94-3.33,2.51-6.5,4.02-9.65.39-.81,1.57-1.24,2.39-1.84.54.87,1.28,1.67,1.57,2.62.35,1.15.32,2.43.46,3.65Z"/>
      <path class="cls-1" d="M365.17,690.48c-4.56-.36-9.16-.51-13.68-1.13-8.98-1.24-17.78-.39-26.46,1.95-13.09,3.53-26.13,3.56-39.2-.08-9.78-2.73-19.72-3.03-29.7-1.54-17.79,2.67-34.38-.91-50.24-9.06-6.88-3.53-14.03-6.52-21-9.88-.91-.44-1.49-1.55-2.22-2.36.9-.66,1.7-1.64,2.71-1.93,5.3-1.57,10.6-.56,15.79.62,4.94,1.12,9.86,2.48,14.64,4.17,11.81,4.19,23.94,5.49,36.38,4.9,12.33-.58,24.62-.03,36.84,1.84,12.04,1.84,24.07,1.41,36.07-.38,10.42-1.56,20.89-2.07,31.37-1.48,14.67.83,28.81-1.21,42.71-6.02,6-2.08,12.4-3.11,18.7-4.21,2.45-.43,5.14.1,7.64.57,1.03.19,1.87,1.37,2.79,2.1-.76.8-1.38,1.91-2.31,2.35-6.15,2.95-12.36,5.78-18.57,8.59-4.32,1.96-8.69,3.81-13.02,5.74-9.32,4.13-19.11,5.63-29.25,5.25Z"/>
      <path class="cls-1" d="M305.09,615.03c-8.49,1.05-15.48-2.52-21.67-8-5.79-5.13-11.29-10.6-17.17-15.62-3.59-3.07-7.69-5.53-11.46-8.39-.95-.72-1.53-1.94-2.28-2.93,1.18-.47,2.34-1.28,3.54-1.34,5.51-.29,10.54,1.6,15.18,4.27,6.84,3.94,13.71,7.91,20.13,12.49,9.61,6.86,18.62,6.77,28.32.06,7.57-5.24,15.59-9.91,23.77-14.13,3.53-1.82,7.96-2,12.03-2.63.96-.15,2.11.92,3.17,1.43-.68.88-1.18,2.06-2.07,2.58-9.61,5.6-17.31,13.46-25.24,21.06-1.5,1.44-3.13,2.74-4.71,4.09-6.18,5.24-13.2,8-21.54,7.05Z"/>
      <path class="cls-1" d="M382.1,666.97c-2.39.14-4.8.56-7.17.38-9.22-.68-17.93-3.53-26.6-6.52-1.1-.38-2.21-.74-3.28-1.21-8.22-3.57-16.62-3.77-25.16-1.4-9.1,2.52-18.24,2.98-27.35.31-10.4-3.05-20.27-1.75-30.19,2.31-8.33,3.41-17.04,5.8-26.08,6.51-2.4.19-4.85-.21-7.27-.33-.05-.31-.09-.62-.14-.93.73-.44,1.41-1.05,2.2-1.3,12.79-3.93,24.78-9.74,36.61-15.85,7.99-4.13,16.33-4.18,24.57-1.96,8.76,2.36,17.16,2.7,25.94.13,6.31-1.84,13.01-2.45,19.47-.32,3.54,1.16,6.95,2.78,10.29,4.47,9.74,4.92,19.61,9.54,30.05,12.82,1.44.45,2.8,1.17,4.19,1.77-.03.38-.06.76-.1,1.14Z"/>
      <path class="cls-1" d="M234.44,705.24c1.88,1.12,3.84,2.14,5.64,3.37,11.71,8.02,24.43,13.61,38.51,15.65,21.85,3.16,43.64,3.25,65.14-2.58,10.06-2.73,19.16-7.56,27.74-13.4,1.66-1.13,3.5-2.01,5.26-3.01l.9.8c-.98,1.69-1.77,3.54-2.99,5.03-5.35,6.54-12.03,11.47-19.51,15.3-14.39,7.37-29.58,11.31-45.86,11.13-10.83-.12-21.65.03-32.2-2.98-14.93-4.26-28.84-10.33-39.53-22.13-1.69-1.87-3.5-3.75-3.74-6.44.21-.25.42-.5.64-.75Z"/>
      <path class="cls-1" d="M262.96,408.1c.38-10.84-3.29-20-7.53-29.02-.67-1.43-1.39-2.87-1.76-4.38-.53-2.14.58-3.32,2.73-2.78,1.57.4,3.16,1.13,4.44,2.11,3.86,2.95,6.62,6.78,8.11,11.42,2.86,8.9,1.85,17.59-1.89,26-.54,1.2-1.95,2.02-2.95,3.01-.38-1.33-.87-2.64-1.11-3.99-.18-.97-.03-1.99-.03-2.38Z"/>
      <path class="cls-1" d="M339.22,396.02c0-8.68,2.5-15.89,8.92-21.3,1.58-1.33,3.68-2.22,5.69-2.82,1.73-.52,2.77.72,2.32,2.47-.48,1.83-1.28,3.6-2.08,5.32-3.2,6.89-6.17,13.86-6.97,21.5-.36,3.46-.13,6.98-.33,10.47-.05.95-.68,1.86-1.05,2.79-.79-.61-1.85-1.06-2.34-1.86-3.17-5.22-3.87-11.08-4.16-16.56Z"/>
    </g>
  </g>
</svg>